/* XPM */
static char *b01277cf4c614fcc992debce7dc448a9eqHlkY4a7dUV36YM[] = {
/* columns rows colors chars-per-pixel */
"100 75 246 2 ",
"   c None",
".  c #723A04",
"X  c #6D3E25",
"o  c #7B4309",
"O  c #78482D",
"+  c #844A0C",
"@  c #8A4C0D",
"#  c #854707",
"$  c #98550D",
"%  c #854B14",
"&  c #8B5213",
"*  c #8D5418",
"=  c #945414",
"-  c #9B5B15",
";  c #955619",
":  c #9C5C1B",
">  c #975917",
",  c #89510F",
"<  c #A05F1C",
"1  c #A25E14",
"2  c #9E601C",
"3  c #A46216",
"4  c #A4631D",
"5  c #A9661C",
"6  c #AC691C",
"7  c #AA6516",
"8  c #B36C1D",
"9  c #BA6F1A",
"0  c #B7721D",
"q  c #A2600D",
"w  c #9B5E23",
"e  c #955B27",
"r  c #855025",
"t  c #9E6223",
"y  c #9C6539",
"u  c #A46423",
"i  c #AC6A24",
"p  c #A66A2A",
"a  c #AC6C2B",
"s  c #A66728",
"d  c #B26E24",
"f  c #B16D2C",
"g  c #B86F22",
"h  c #AE712C",
"j  c #B57225",
"k  c #BA7325",
"l  c #B4722C",
"z  c #BA752B",
"x  c #BD7A2C",
"c  c #BE7A26",
"v  c #AD6C32",
"b  c #A26A34",
"n  c #B26D32",
"m  c #B06F39",
"M  c #AC7333",
"N  c #B47533",
"B  c #BC7B33",
"V  c #B4793A",
"C  c #BC7C3B",
"Z  c #B67539",
"A  c #C57B24",
"S  c #C37C2C",
"D  c #C37825",
"F  c #C27D32",
"G  c #C27F38",
"H  c #C67A1F",
"J  c #9C6945",
"K  c #976D56",
"L  c #B77946",
"P  c #AB794F",
"I  c #9A7767",
"U  c #926F66",
"Y  c #A87E65",
"T  c #835944",
"R  c #BB813C",
"E  c #CA832D",
"W  c #C88227",
"Q  c #C58233",
"!  c #CB8533",
"~  c #C3843C",
"^  c #CC8B3C",
"/  c #CA8839",
"(  c #D18D3B",
")  c #D28B34",
"_  c #D7933A",
"`  c #D48A2A",
"'  c #E19A36",
"]  c #CA801D",
"[  c #BC8345",
"{  c #BC8955",
"}  c #B48766",
"|  c #A8816B",
" . c #C58C44",
".. c #CB8D42",
"X. c #C58947",
"o. c #CD9144",
"O. c #CD924B",
"+. c #C7914B",
"@. c #D39344",
"#. c #D3964A",
"$. c #D5994B",
"%. c #DB9B4B",
"&. c #DB9944",
"*. c #C48D54",
"=. c #D59B53",
"-. c #D69C56",
";. c #CB9754",
":. c #E19E4E",
">. c #DCA255",
",. c #DBA55B",
"<. c #DDA85F",
"1. c #DFA24C",
"2. c #E6A54D",
"3. c #E4AB5E",
"4. c #E4A857",
"5. c #EDB25C",
"6. c #CA9A66",
"7. c #C59A79",
"8. c #CD9665",
"9. c #CEA26A",
"0. c #DCAC6C",
"q. c #DAA765",
"w. c #D7AB76",
"e. c #DAB178",
"r. c #CCA37C",
"t. c #E3AD63",
"y. c #E3AE6A",
"u. c #E7B269",
"i. c #E5B677",
"p. c #F2BF76",
"a. c #ECB76E",
"s. c #F1C47E",
"d. c #B99987",
"f. c #B49893",
"g. c #AC8C84",
"h. c #BCA3A0",
"j. c #C49C82",
"k. c #CDA385",
"l. c #DCBB8B",
"z. c #D9B687",
"x. c #C6A799",
"c. c #D5BC94",
"v. c #D9BB97",
"b. c #D1AC91",
"n. c #E3BB85",
"m. c #E5BC96",
"M. c #C5ACA5",
"N. c #CDBCBA",
"B. c #CCB6B3",
"V. c #D1BEBB",
"C. c #D2BCB4",
"Z. c #D1B7AD",
"A. c #DBC49D",
"S. c #DDC99D",
"D. c #D9C198",
"F. c #DCC18F",
"G. c #EBC58C",
"H. c #E7C287",
"J. c #F5C988",
"K. c #E3C493",
"L. c #E3C99C",
"P. c #EBCC9C",
"I. c #E7C797",
"U. c #F4D39C",
"Y. c #F2CE97",
"T. c #DAC6A4",
"R. c #DDCAA5",
"E. c #DBC7AA",
"W. c #DDCCAB",
"Q. c #D6C2A1",
"!. c #DECDB2",
"~. c #D1C1BE",
"^. c #D9C1B9",
"/. c #DFD1B2",
"(. c #D7C8B5",
"). c #E3CCA2",
"_. c #EACDA2",
"`. c #E1CEAB",
"'. c #E5C8A8",
"]. c #E5D1A6",
"[. c #EBD1A5",
"{. c #E4D2AC",
"}. c #EAD4AC",
"|. c #F3D4A4",
" X c #F3D6AB",
".X c #F8DAAA",
"XX c #E2CBB4",
"oX c #E4D4B4",
"OX c #EAD6B3",
"+X c #E7D8B6",
"@X c #EBD9B5",
"#X c #E3D6B9",
"$X c #E6D9BB",
"%X c #EBDCBC",
"&X c #E8D7B8",
"*X c #F3DBB4",
"=X c #F2DDBC",
"-X c #F4D8B3",
";X c #F6E1BD",
":X c #FAE3BB",
">X c #FBE2B6",
",X c #EEE0BF",
"<X c #D4C5C4",
"1X c #D6CAC9",
"2X c #D9CDCC",
"3X c #D9C9C5",
"4X c #DDD4D4",
"5X c #DED9DA",
"6X c #DACFD3",
"7X c #E6DCC2",
"8X c #EBDEC2",
"9X c #E9D5C7",
"0X c #F0DFC1",
"qX c #E3DBDD",
"wX c #E4D6D5",
"eX c #E1CDC9",
"rX c #EDE1C4",
"tX c #ECE3C9",
"yX c #E7E0C8",
"uX c #F2E3C4",
"iX c #F9E5C2",
"pX c #F2E5CA",
"aX c #F6EACC",
"sX c #FBECCC",
"dX c #FAE8C7",
"fX c #EEE4D5",
"gX c #F6EBD1",
"hX c #FAEED2",
"jX c #FBF1D5",
"kX c #FCF5DB",
"lX c #FDF8DF",
"zX c #FDF0CF",
"xX c #E3DEE1",
"cX c #E4E2E5",
"vX c #E5E4E9",
"bX c #EAE6EB",
"nX c #EBE9EE",
"mX c #EBE4E7",
"MX c #F2EAEB",
"NX c #FDF9E3",
"BX c #FDF9E4",
"VX c #EDEDF3",
"CX c #E9ECF4",
"ZX c #F3EDF1",
"AX c #EEF1FB",
"SX c #F3F3FC",
/* pixels */
"                                                                                                                                                                                                        ",
"                                                                                                                                                                                                        ",
"                                                                                                                                                                                                        ",
"                                                                                                                                                                                                        ",
"                                                                                                                                                                                                        ",
"                                                                                                                                                                                                        ",
"                                                                                                                                                                                                        ",
"                                                                                                                                                                                                        ",
"                                                                                                                                                                                                        ",
"                                                                                                                              b.7.7.7.7.k.7.7.k.                                                        ",
"                                                                                                                b.7.*.P L L L L L L L L m m C C L C [ *.6.z.                                            ",
"                                                                                                            7.L m n v v m v v f f j d j z k g x W k c k S ~ / ;.m.                                      ",
"                                                                                                      v.6.L m v v v n f n a j x ~  . .+.O.6.w.9.e.z.z.m.z.e.e.q.<.i.                                    ",
"                                                                                                  k.{ Z n m m m f d 8 6 B X.;.w.z.A.A.v.A.E.E.!.(.E.W.E.E.T.A.F.z.i.0.'.                                ",
"                                                                                    hXiX*X-X=Xz.{ m n n v v l x x Q +.9.z.c.E.E.W.E.E.E.T.T.E.T.Q.T.c.c.T.T.c.c.v.v.z.i.                                ",
"                                                                          BXNXkXjXjXsXhXsXjXn.Z n n s n d z Q R 6.z.c.W.E.E.E.T.E.T.E.T.D.T.E.#XoX#XoXoX{.$X/.{.T.v.c.H._.                              ",
"                                                            hXhXzXkXlXkXlXkXkXkXjXNXkXjXBXz.f v n n f D R +.w.c.T.!.D.Q.v.c.c.D.R.W./.+XR.#X+X/.R.}.$X{.{.+X$X$X#X`.z.v.P.                              ",
"                                                      kXjXhXjXjXzXjXkXkXlXlXkXkXkXkXjXNXz.f f f n f F ~ 9.c.W.W.E.c.c.T.!./././.$X#X$X$X7X+XyX7X+X{.yX,XtX%X$X$XoX{.v.z.P.0X                            ",
"                                            hXhXsXsXjXaXsXjXkXkXkXkXkXkXlXlXlXlXNXjXBX'.f f n f n F X.w.A.E.E.D.E.W.W.#X$X7X$X$X7X,X7X7X$X,XyX,X,X$X$X,X%X$X+X}.oX$X+Xl.L.pX                            ",
"                            =XdX:XdXsXdXsXsXsXjXkXkXkXjXjXjXjXkXkXNXlXkXlXlXlXkXkXBXhXG f z z n S #.b.XXE.E.E.oXoX$X#X$X7X$X$XrX$X+X7XyX$X,X+X$X$XtX$X].$XrX%X$X8X%X+XL.K.uX                            ",
"                      -X*X*X*XdXiXsXhXkXkXjXjXkXkXkXkXkXBXNXNXkXkXlXkXkXNXlXlXlXNXBXw.l z n S F ..l.!.E.c.W.oXoXoX+X$X7X$XyXyX8XtX,X,X,X$X7X,X,X,X,XyX}.$X,X+X+X&X}.OX'.I.gX                            ",
"              *X0X-X:XiXsXhXjXdXsXjXjXsXjXjXkXkXkXkXkXkXkXkXkXkXkXkXkXlXNXkXkXlXBX*XF G F l S / e.!.!.W.R.W.R.7X$X7X7X7XyX%X8XoX+X+X$X+X,X,XtX,X,XtX,XtX,X,X%X,X8X@X@X}.iXgX                            ",
"            |.*XsXdXsXhXhXhXiXsXhXdXsXsXjXkXjXjXjXkXkXgXjXBXNXkXlXlXNXkXNXNXNXkXBXw.F G B S E ,.!.!.!./.oX#X7X7X7X8X].+XrX$X7X+X,XyX,X+X+X,X+X,XtX,X+X,X,X,XrX%X%X@X@X-XsXkX                            ",
"            i.p.|.iXdXsXhXdXiXhXjXhXhXjXjXjXjXkXkXkXkXNXNXkXNXkXNXlXNXkXkXNXjXlX=X( G / Q F #.K.!.!.oX#XoXoX#X$X$X%X+XrX+X%X%X].].{.+X,X,X$X,X,X,X,X,X,X$X$X+X@X&X[.@X}.aXBX                            ",
"            y.S _ p..XdXhXsXhXdXsXjXjXkXkXkXkXkXjXNXkXNXkXBXBXkXkXlXkXkXkXkXaXkXi./ ^ ^ / ! <.`.W././.$X$X+X$X,XyX%XoX,X+X{.%X+X,X,X@X,X+X,X+X,XrX@X{.,XrXrXOX,XrX%X}.P.,XgX                            ",
"            w.F k S :.Y.sX=XdXhXhXjXsXjXlXkXkXkXjXkXjXkXNXkXNXNXkXkXjXjXjXjXjXkXn.$.=.O...@.z.XXW.$X/.oX+X{.].+X{.+X+X,X$X$X,XrX,X+X+X+X+X,X].}.aX,X@X{.$X,X,X%X].=X,XS.F.+XpX                          ",
"            e.l f d H ) p.iXdXJ.>XsXhXjXkXkXkXkXkXkXkXkXBXkXkXBXkXkXkXjXjXjXaXkXG.0.0.-.-.<.I./././.{.oXoXoX+XS.L.+X$X+X+X%X+X%X$X+X@X%X,X,XtX+X+XrXrX,X,X,X,X,XP.F.{.OX).l.@X                          ",
"            v.Z n u l D ) a.*X|..XiXsXjXjXjXjXjXjXkXkXgXkXBXjXBXlXkXkXjXjXzXaXaXP.H.e.e.0.0.'.oX#X/.7X+X$X$X+XS.].+X$XoX+X+X%X+XtXtX,X%X,X{.$XtX,X,X,X$X,X}.@X,X+XL.P.+X&XP._.aX                        ",
"            z.Z p < l z k A 4..XsXdXjXsXjXjXzXjXhXjXkXhXjXkXhXkXjXjXjXzXaXgXaXuX[.L.K.n.F.s.{.W./.S././.].{.oX+X$X{.$X,X,X$X%XtXpX%X%X,X].+XrXrX,XrX+X,X%X%X}.}.%X0X0XOX{._.[.aX                        ",
"            i.*.a - l B z k H 2.J.dXsXzXsXjXjXjXjXjXkXjXhXkXjXkXkXzXaXuXuXuXrXrX}.L.L.A.F.].+XR.S.{.S.+X$X7X+XoX,X+X$X$X$X,X+X+X,X$X$XrX+X,X,X@X,XtXrX,X%X%X@X%X8XOX%X%X8X}.P.pX                        ",
"            ..B N : l R B z c ) :.J.zXzXjXjXdXdXjXjXjXkXjXgXkXgXgXgXuXrXrXrX,X,X+X).L.S.S.].+X/.].$X].F.$X7X+X{.tX+X$X+X+X$X+X@X$X%X%XoXpX,X$XrX,X$X$X,XuXrXrX}.=XrX%X&X0X[.U.0X                        ",
"             .u u 5 i B B l l Q ) _ J.:XsXjXsXzXjXjXaXjXkXjXjXgXpXpXuX,X+X,X$X+X}.L.R.S.).].+X+X+XS.S.S.,X+X{.$XyXyX{.{.+X].+X,X+X+X,X,X,X$X,X$X,X+X+X+XoX}.rX8X[.].&X=X9XOX_.gX                        ",
"            X.a p 4 7 6 l N d F ~ E _ s.>XjXjXkXjXkXjXaXjXgXgXaXrX,X,X+X+X$XoX{.@X].F.F.F.S.+X,X+X].{.yX{.S.+X7X+X$X].7X$X+XR.+X+X+X%X$X+XtXrX%XyXaX$X,X,X{.@X,X+XK.@XrX&X[.}.jX                        ",
"          '.X.a : s j 7 5 i i N G S A _ 5..XzXzXdXkXdXaXaXaXaXrX,X].OX$X$X%X%X%X,X,XP.F.e.e.F.}./.oXS.].oXR.7X7X+X7X7X7X+X7X+X{.%X/.R.+X+X+X$X%X$X%X$X%XrX{.@X@X@XrXrX%X%X_.[.hX                        ",
"          e...s u < N i d 5 5 d z B F S ` u.U.sXsXjXjXjXjXaXuXrX@X+X{.oX+X+XOX%X@X].].]./.].@X,X/.+XS.R.$X$X$X$X7X+X+X$X+X+X+X+X%X$X+XyXrX,X%X$XoXoXoX%X+X@X}.,X,X$XrXrX8X}.P.uX                        ",
"          e.#.a : < l j f i f 4 6 B B F E _ 4.J.dXjXjXsXjXjXzXaX,X,XrXK.z.OX].].H.K.U.].@X:XzX@XR./.+X$X$X$X$X#XoX+XyXyX+X7X7X+XoX%X$X,X+X+X,X$X,X%X%X,X+XuX,X+X,XrX@X@X%X[.P.:X                        ",
"          v.F N a 4 i d N 3 a = $ N B B F G ! _ a.>XjXsXkXjXjXzXaXaXrX}.}.$XOX[.u.e.i.L.P.U.,X/.R./.#X/.$X$X/.#X/.#X+X$X$XyX+X+X/.tX,X$X{.oX{.+X%XoX,X,X$X+X,X,XuX%X8XOX@X*XP.=X                        ",
"          '.X.d 5 a 3 < u s j ; - 5 a B l l z F ( 5.>XkXzXzXzXjXjXjXzX:X:X|.H.t.<.,.t.i.s.s.+X{.{./././.R.#XyX+X/.+X#X$X+XyX+X+XtX{./.%X$X].{.+XoX%X].rXtX%X@X,X0X%X0X8X).'.[..XgX                      ",
"          XXL u - i i : N a s @ i d 7 7 i a C ~ G ( p.>XzXzXzXdX>XU.J.s.5._ W 0 @.$.$.,.<.s.@X{.{.R.#X$XR.R.$X/.$X#X/.7X/.R.$XR./.`.oX`.$X+X%X).}.%XrX,X,X%X%X,X8X0X%X=X&XI.[.-XiX                      ",
"  VXZXnXAX9X[ a t 4 a 4 3 s : $ N i i < i 5 N [ Z c _ p.s.J.s.s.5.' ` ` ] ] 7 q R ^ ^ ^ =.<.]./.R.+X/./././././.#X#X/.$X7X/.7X$X{.$X{.`.gX$XrX$X%X].].oX,X+XaXrX8X%X%X@X%X).G..XdX                      ",
"nXnXCXvXCX!.B u 2 u M i 4 < u s j u u < g 6 i N V V c t.4.2.2.' ' W ] H ] 0 q q R / ( o.o.<.]././.R././.#X/.#XR.R.yX#X7X7XyX$XyX8XyXpX&XrX&XtXtX+X@X@X%X%XuXrX8X0X8X0XoX%X_.G. XgX                      ",
"vXvXvXvX4Xq.~ 4 > 2 4 u a a : s t w : = l f 5 B V V ..0.4.' _ W ] 8 0 c R 2 2 # 2 / ^ o.$.t.]././.Q.W././././.yXyX$X/.$XyX7X7XyXyXS.$XyXoX%X%X%X8XuX8XpXtXrXuX%X%XpX%X@X%X=X[. XaX                      ",
"vXvXcXvXXX0.9.M > 2 t i i s u < ; : : - N 4 4 j a L ;.e.>._ j k 0 8 A x 8 6 q + M ^ o.$.$.<.)././././.R.#X#XyX#X/.yX$X/.#XyXyX$X7XoX#X$X+X$X%XyXpXtX8X%X%X8XrXuX=X&X0XOX).uX[.[.aX                      ",
"vXvXcXCXv.Q [ { P 2 i R i 4 a a < s < 5 f 4 s i 3 i ^ 0.1.! c k k 0 k 0 6 6 o o h ^ o.#.$.>.I././.Q.R.yXyXyX#X#X#X/.#X#X#XyX#X+XfX8X8XtXrX$X8X8X8X8X8X%X8XpX&XuX%X%X0X%Xm.=X@X X0X                      ",
"cXvXcXbXe.j = 7 [ { t z f > s l 4 : < i i f N N i j #.0.%.! Q x j k 6 3 5 - , o h ^ ^ $.=.<.G./././.#XyX(.W././.$X#XR./.#X7XyX7X7X7X7XtXtXyXrXrXpX8XpX%XtXuX%X=X0X0X@X%X@X@X@XU.-X                      ",
"cXcXvXxXw.a ; t 3 B { M h : i a a u 4 4 a l h N u R ,.0.$.! c j j j 0 j d i - , p +.o.$.$.>.H./.R.R.F.S./.W./.#X7X7X#X7X#XyXyX+X7XtX8X8X&XrXtXrXrXOX8X%X8XuX%X%XOX%X=X@X=X0X@X|..X          SXSX    SXSX",
"vXcXvXqXq.N w u 5 7 j [ [ t u f i a : u i h i a u B >.0.<.^ E Q j c S k j 5 $ , , ^ o.$.$.>.H.+X/.R./.R./.7X/./.#XyX#X$XyX/./.#X8X8X%XyX8XrXtXtXtXrX8X8XtX@X@X8X%X).[.=X*X@X'.|.-X                      ",
"vXcXcXqX9.Z e w : u 6 q R { ; u - - u i i a 4 p 2 R >.,.0.>.0 W k 0 j x j 2 2 o , ^ #.o.$.>.s././.R././.#X/./.yX#X7X#X+XyX$X#X+X7X+XyX8XtXtXrXtXpXpX8X0X@X[.0XuX0X_.}.%X%X%X-X}. XfX                    ",
"vXcXcXcXT.C t w w u i $ $ f Z w - : i N i u 2 w a R t.t.<.>.! R 0 6 h W 6 6 $ o & o.#.@.$.>.n.OX/./.#X/.W././.$X/.$XyXyX7X,X7X7XyX$X8XrXtX8X@X@XoX%XrX%XuXrXrXuX0XuXuX@X0X&X=X@XP.=X        VXAXVX      ",
"vXcXfX5X3X*.s ; : : < > $ $ i V p - h N l u : i i +.>.,.$.%._ z j j 0 6 6 2 > o * @.@.@.$.2.H.{./.R./.7X#X#X7X/.$XyX/.+XyX7X/.+X8X$X#XyX$X@XoX&X8X@X%X8XuXuX0X%X%X0X=X&X0X0X&X0XG.9X    VXAXVXVXAX      ",
"vXcX5X4X2X(.7.u ; & - < > > - 8 R b : i u V u N i  .=.,.$.@.@./ j R R 0 h q > o & @.@.$.$.2.H.OX/./.#X#X#X#X$XyXyX7X#X#X$X/.+X+X8X8X8X$X$XrX%X+XpX8XuXpX8X%X%X@X=X;X%X0X=XXXoX-XI.fXAXVXVXVXVXVXVX      ",
"vXcX5X4X2X1X<Xd.w : p u i : > 5 6 C M p 4 N M u l Q >.q.$.O.^ Q E q 6 h 3 & , o & ^ ( $.@.4.G.{./.R.S./.$X#X7X/.$X$X#X$XyX+X$X,XyX8X8XrXtXrXrXuXuXrXuX%X%XuX=XuXuX@X-XuX0X&X=X&X_.fXVXVXnXVXVXVX        ",
"vXcXxX4X6X<X<X~.M.P = 1 u u @ < 1 f j p : u f i C ^ =.,.$.o./ x R 0 j j 0 3 $ , 2 ^ _ $.&.3.I.{././.R.R.$X#X#X#X$XyXtXtX7X7XyX7X{.yXtX8XtXrXrXuXrX%X%XrX%XuXuXuX=X%X@XuX-X9X=X=Xp.9XSXMXVXVX            ",
"nXvXqX5X4X2X<X~.<XB.} e = u o = ; u 3 l v - n a N =.>.t.$.) A A W W W Q R 2 2 o * ( ( @.&.3.Y.oX/.#X+X7X$X$X7XtX$XrX$XyX+X+XyX,X%X8X8X@X@X&X&X%X8X8XuX,X%X%X=X@X}.%X=X%X&X&X&X-Xn.wXCXMXVX              ",
"CXvXcXqX4X2X1X<X~.N.V.M.J f e @ ; - i 7 i a s u N -.y.3.1.) E D S k 0 R j 2 2 o * _ ^ @.&.3.P.XXR.$XR.$XQ.S././.rXyXtXyX$XyX$X$XyX8X%X&X%X%XoX%X@X&X=X=XuXrX%X-X-X0X&X%X0X0X=X-Xn.MXVXVX                ",
"CXnXvXcX5X4X2X1X<X~.V.V.B.Y = & : ; u i - i s - [ ^ e.t.@.) S k j 0 c j 5 6 2 o 2 ^ ( ( _ t._.&X/.oX/.$XoXW.#X#X$X$X$X%X$X{.+X$X%X&XyXrX8X&X}.@X%X=X@X%X*X@X@X@X@XOX@X%X0X0X0X|.-XSX                    ",
"  VXnXcXxX5X4X1X1X<X<XN.V.N.Y & ; ; t < = < u u m ~ 0.i.@.) S z d j c d d u & & 3 ! / ( _ t.|.XXoX+X$X8XyX8X7X7X$XtX$X$XoX{.yX8X$X&XOX@X{.@X@X[.=X%X%X X[.}.-X=X=X@X@X}.-X_._.9XZX                      ",
"    CXnXxXxX4X2X1X<X<XN.V.N.N.d.b = e : ; : < < i X.y.e.-.( z g d z j j i > & o < ! ! ( _ t._.oXoX#X+XR.$X+X#X{.{.$X%X7X%X$X+X%X$X%X}.$XOXOX}.[.}.@X@X%X*X-X|.|.n.y.-...O.q.XX                          ",
"      VXnXcXqX4X6X1X1X<X<XV.N.<XM.e @ ; a < s a B S e.n.t.@.G F z j j i 3 , + . ; ) ! ^ _ 3.[.oXoX#X#X+X8X#X$XoXoX$XrX$X#X@X%X#X'.@X}.@X%X}.}.}.=X*X X|.J.,.! d a s J } k.                              ",
"        CXnXvXxX5X6X2X1X<XV.V.N.<Xx.e = f u w u C c #.y.q.@.G S 8 8 z i i 2 + . ; / F ! ( u.}.oX#X$X%X{.+X%X+X%XrX$X,X+X@X@X%X%XOX-X}.@X*X@X>X.XY.u.$.a % y K I f.B.6X                                  ",
"          VXVXvXcXqX4X6X1X<XV.N.N.1X} # < 4 ; < f B @.>.3.-.@.@.! A E S j - + o u F S ! ( 3.'.oX$X#X%X%X$X%X$X%X$X+X@XOX&X%X@X@X@X=X-X:XU.s.9.Z t e Y I f.C.xXZX                                        ",
"              VXbXvXxXqX6X2X<X<XV.~.d.| J = t u i z %.4.a.5.4.:.) A D g i > + o u D A ! ) y.}.oX&X$X7X$X$X$XrX8X%X{.}.}.@X}.-X=X XG.a.[ w e O T I M.2XmX                                                ",
"                  VXVXmXxXqX4X1X~.~.<X<XN.J @ t N B @.>.u.4._ ( E D d 8 4 w & . 4 D D S ) t.OXOXOXXXoX$XrX7X%X{.+X}.&X%X.XU.J.u.X.s r X K f.B.wXMX                                                      ",
"                        VXbXmXxXwX1X<XV.~.B.Y w i z / %.@.:.:.( S k g d 4 : @ + ; k D F ) 4._.OX&X8X$X8X+X@XOX}.%X*X Xp.O.a u r O U f.B.6XxX                                                            ",
"                              VXbXcXwX6X<X~.3Xd.v z @.4.>.:.%...D D z i < ; % o % z F G S 4._.XX}.&X@XOX{.}.@X*XI.u.R p O O I f.B.6XmX                                                                  ",
"                                    MXbXxXwX<X1X7.j ( 4.t.4.:.@.F D f i < @ % r I [ F ..) 2.|.}.}.OX'.}.;X*XI.>.l b J g.M.<XqXMX                                                                        ",
"                                          VXmXwX3Xk.8.%.@.:.:.S A D g n b K d.M.N.b.X.G @.:.P.OXOXOXOX-XP.,.6 M Y h.3XqXMX                                                                              ",
"                                                    9Xm.i.y.q.-.8.r.Z.XXwXwX3XC.B.C.x.8.^ :.J.0X@X X_.,.M b } C.wXZX                                                                                    ",
"                                                                      SXMXmXqXwXeXV.V.Z.j.-.a.n._.m.*.6.x.                                                                                              ",
"                                                                              ZXMXmX9XeXeXC.b.7.r.v.                                                                                                    ",
"                                                                                                                                                                                                        ",
"                                                                                                                                                                                                        ",
"                                                                                                                                                                                                        ",
"                                                                                                                                                                                                        ",
"                                                                                                                                                                                                        "
};
